<?xml version="1.0" encoding="utf-8"?>
<!-- Generator: Adobe Illustrator 23.0.3, SVG Export Plug-In . SVG Version: 6.00 Build 0)  -->
<svg version="1.1" id="Layer_1" xmlns="http://www.w3.org/2000/svg" xmlns:xlink="http://www.w3.org/1999/xlink" x="0px" y="0px"
	 viewBox="0 0 302.4 392.43" style="enable-background:new 0 0 302.4 392.43;" xml:space="preserve">
<style type="text/css">
	.st0{fill:none;stroke:#EC2227;stroke-width:1.5;stroke-miterlimit:10;}
	.st1{fill:#D9D9D9;}
	.st2{fill:#B92C00;}
	.st3{fill:none;stroke:#D83100;stroke-width:18;stroke-miterlimit:10;}
	.st4{fill:none;stroke:#D83100;stroke-width:21;stroke-miterlimit:10;}
	.st5{fill:#FFFFFF;}
	.st6{fill:none;}
</style>
<ellipse class="st0" cx="150.12" cy="138.45" rx="100" ry="89.5"/>
<path class="st1" d="M95.12,352.79c0.04,0.05,0.07,0.11,0.1,0.16l0.11-0.22l45.75-95.41l-0.16-0.06l-32.41-12.16l-45.86,95.66
	l22.31-5.68l10.27,17.48L95.12,352.79z"/>
<polygon class="st2" points="180.48,364.26 156.17,392.44 126.41,254.06 155.68,248.95 155.73,249.18 "/>
<path class="st1" d="M218.58,365.77c0.07,0.02,0.13,0.04,0.2,0.06l-0.2-0.94v-0.01l-26.26-122.09l-0.18,0.03l-36.41,6.36
	l24.75,115.08l8.25-9.56l29.65,10.12L218.58,365.77z"/>
<path class="st2" d="M141.01,257.07l-0.09,0.19l-45.69,95.3l-0.11,0.23c0.04,0.05,0.07,0.11,0.1,0.16l0.11-0.22l16.81,28.64
	l54.91-114.53L141.01,257.07z"/>
<polygon class="st2" points="108.6,244.92 108.51,245.1 62.65,340.76 27.64,349.66 82.55,235.15 "/>
<path class="st2" d="M221.35,237.48l-29.26,5.11l0.05,0.23l26.24,122l0.2,0.95c0.07,0.02,0.13,0.04,0.2,0.06l-0.2-0.94l32.27,11.01
	l0.27-0.05L221.35,237.48z"/>
<ellipse class="st3" cx="150.87" cy="139.29" rx="120.75" ry="107.58"/>
<g>
	<polygon class="st4" points="289.12,139.3 277.93,155.9 283.13,175.04 267.06,187.44 265.87,207.19 246.68,214.42 239.61,233.01 
		219.1,234.81 207.07,250.89 186.78,247.42 170.83,259.95 152.13,251.63 133.42,259.95 117.47,247.42 97.18,250.89 85.15,234.81 
		64.63,233.01 57.57,214.42 38.38,207.19 37.19,187.44 21.12,175.04 26.32,155.9 15.12,139.3 26.32,122.68 21.12,103.54 
		37.19,91.14 38.38,71.39 57.57,64.16 64.63,45.57 85.15,43.77 97.18,27.69 117.47,31.16 133.42,18.63 152.13,26.95 170.83,18.63 
		186.78,31.16 207.07,27.69 219.1,43.77 239.63,45.57 246.68,64.16 265.87,71.39 267.06,91.14 283.13,103.54 277.93,122.68 	"/>
</g>
<path class="st5" d="M154.17,424.04"/>
<path class="st6" d="M935.12,580.43"/>
<path class="st6" d="M-301.88,392.43"/>
<line class="st6" x1="-249.88" y1="99.95" x2="-286.88" y2="128.95"/>
<polygon class="st6" points="62.65,340.76 53.69,359.44 27.64,349.66 "/>
<line class="st6" x1="38.4" y1="379" x2="38.64" y2="379"/>
<path class="st6" d="M95.82,377.97l16.32,3.4l-15.35-5.76C96.7,376.46,96.38,377.26,95.82,377.97z"/>
<path class="st6" d="M83.01,370.44l-29.32-11l-26.05-9.78l4.04,14.94l54.84,11.43C85.21,374.24,84.03,372.39,83.01,370.44z"/>
<line class="st6" x1="188.88" y1="354.52" x2="188.73" y2="354.7"/>
<path class="st6" d="M261.65,379"/>
<path class="st6" d="M188.21,354.52"/>
<polyline class="st6" points="218.38,364.82 218.58,364.88 218.58,364.89 "/>
<line class="st6" x1="188.73" y1="354.7" x2="188.21" y2="354.52"/>
<path class="st6" d="M257.76,331.24"/>
</svg>
